PS_ngait_og_ss11_kinetics.mot
version=1
nRows=30
nColumns=28
inDegrees=yes
endheader
time	1_ground_force_vx	1_ground_force_vy	1_ground_force_vz	1_ground_force_px	1_ground_force_py	1_ground_force_pz	2_ground_force_vx	2_ground_force_vy	2_ground_force_vz	2_ground_force_px	2_ground_force_py	2_ground_force_pz	3_ground_force_vx	3_ground_force_vy	3_ground_force_vz	3_ground_force_px	3_ground_force_py	3_ground_force_pz	1_ground_torque_x	1_ground_torque_y	1_ground_torque_z	2_ground_torque_x	2_ground_torque_y	2_ground_torque_z	3_ground_torque_x	3_ground_torque_y	3_ground_torque_z
  0.82500000	  0.00000000	  0.00000000	  0.00000000	  0.30000000	 -0.00600000	  0.20000000	  0.00000000	  0.00000000	  0.00000000	 -0.30000000	 -0.00600000	  0.20000000	-47.40829846	684.54126604	-32.51793792	  0.96912036	 -0.00600000	  0.25412259	  0.00000000	  0.00000000	  0.00000000	  0.00000000	  0.00000000	  0.00000000	  0.00000000	 -3.70024002	  0.00000000
  0.82583333	  0.00000000	  0.00000000	  0.00000000	  0.30000000	 -0.00600000	  0.20000000	  0.00000000	  0.00000000	  0.00000000	 -0.30000000	 -0.00600000	  0.20000000	-47.02688292	682.75992755	-32.31695091	  0.96937203	 -0.00600000	  0.25413351	  0.00000000	  0.00000000	  0.00000000	  0.00000000	  0.00000000	  0.00000000	  0.00000000	 -3.69613585	  0.00000000
  0.82666667	  0.00000000	  0.00000000	  0.00000000	  0.30000000	 -0.00600000	  0.20000000	  0.00000000	  0.00000000	  0.00000000	 -0.30000000	 -0.00600000	  0.20000000	-46.64927039	680.98416529	-32.12539442	  0.96962555	 -0.00600000	  0.25414711	  0.00000000	  0.00000000	  0.00000000	  0.00000000	  0.00000000	  0.00000000	  0.00000000	 -3.69005944	  0.00000000
  0.82750000	  0.00000000	  0.00000000	  0.00000000	  0.30000000	 -0.00600000	  0.20000000	  0.00000000	  0.00000000	  0.00000000	 -0.30000000	 -0.00600000	  0.20000000	-46.27325702	679.21729135	-31.94595845	  0.96988207	 -0.00600000	  0.25416299	  0.00000000	  0.00000000	  0.00000000	  0.00000000	  0.00000000	  0.00000000	  0.00000000	 -3.68127290	  0.00000000
  0.82833333	  0.00000000	  0.00000000	  0.00000000	  0.30000000	 -0.00600000	  0.20000000	  0.00000000	  0.00000000	  0.00000000	 -0.30000000	 -0.00600000	  0.20000000	-45.89730541	677.46310856	-31.78156636	  0.97014235	 -0.00600000	  0.25418052	  0.00000000	  0.00000000	  0.00000000	  0.00000000	  0.00000000	  0.00000000	  0.00000000	 -3.66956310	  0.00000000
  0.82916667	  0.00000000	  0.00000000	  0.00000000	  0.30000000	 -0.00600000	  0.20000000	  0.00000000	  0.00000000	  0.00000000	 -0.30000000	 -0.00600000	  0.20000000	-45.52077941	675.72481846	-31.63395732	  0.97040698	 -0.00600000	  0.25419911	  0.00000000	  0.00000000	  0.00000000	  0.00000000	  0.00000000	  0.00000000	  0.00000000	 -3.65557820	  0.00000000
  0.83000000	  0.00000000	  0.00000000	  0.00000000	  0.30000000	 -0.00600000	  0.20000000	  0.00000000	  0.00000000	  0.00000000	 -0.30000000	 -0.00600000	  0.20000000	-45.14373949	674.00613968	-31.50222150	  0.97067633	 -0.00600000	  0.25421838	  0.00000000	  0.00000000	  0.00000000	  0.00000000	  0.00000000	  0.00000000	  0.00000000	 -3.64048019	  0.00000000
  0.83083333	  0.00000000	  0.00000000	  0.00000000	  0.30000000	 -0.00600000	  0.20000000	  0.00000000	  0.00000000	  0.00000000	 -0.30000000	 -0.00600000	  0.20000000	-44.76648869	672.31274855	-31.38341049	  0.97094952	 -0.00600000	  0.25423805	  0.00000000	  0.00000000	  0.00000000	  0.00000000	  0.00000000	  0.00000000	  0.00000000	 -3.62548213	  0.00000000
  0.83166667	  0.00000000	  0.00000000	  0.00000000	  0.30000000	 -0.00600000	  0.20000000	  0.00000000	  0.00000000	  0.00000000	 -0.30000000	 -0.00600000	  0.20000000	-44.38918247	670.65240165	-31.27403700	  0.97122353	 -0.00600000	  0.25425786	  0.00000000	  0.00000000	  0.00000000	  0.00000000	  0.00000000	  0.00000000	  0.00000000	 -3.61170314	  0.00000000
  0.83250000	  0.00000000	  0.00000000	  0.00000000	  0.30000000	 -0.00600000	  0.20000000	  0.00000000	  0.00000000	  0.00000000	 -0.30000000	 -0.00600000	  0.20000000	-44.01150193	669.03284598	-31.17047011	  0.97149439	 -0.00600000	  0.25427773	  0.00000000	  0.00000000	  0.00000000	  0.00000000	  0.00000000	  0.00000000	  0.00000000	 -3.60014845	  0.00000000
  0.83333333	  0.00000000	  0.00000000	  0.00000000	  0.30000000	 -0.00600000	  0.20000000	  0.00000000	  0.00000000	  0.00000000	 -0.30000000	 -0.00600000	  0.20000000	-43.63282830	667.45887054	-31.06886205	  0.97175976	 -0.00600000	  0.25429837	  0.00000000	  0.00000000	  0.00000000	  0.00000000	  0.00000000	  0.00000000	  0.00000000	 -3.59163621	  0.00000000
  0.83416667	  0.00000000	  0.00000000	  0.00000000	  0.30000000	 -0.00600000	  0.20000000	  0.00000000	  0.00000000	  0.00000000	 -0.30000000	 -0.00600000	  0.20000000	-43.25304441	665.93122990	-30.96555656	  0.97202001	 -0.00600000	  0.25432151	  0.00000000	  0.00000000	  0.00000000	  0.00000000	  0.00000000	  0.00000000	  0.00000000	 -3.58658797	  0.00000000
  0.83500000	  0.00000000	  0.00000000	  0.00000000	  0.30000000	 -0.00600000	  0.20000000	  0.00000000	  0.00000000	  0.00000000	 -0.30000000	 -0.00600000	  0.20000000	-42.87283837	664.44780115	-30.85792825	  0.97227679	 -0.00600000	  0.25434940	  0.00000000	  0.00000000	  0.00000000	  0.00000000	  0.00000000	  0.00000000	  0.00000000	 -3.58488734	  0.00000000
  0.83583333	  0.00000000	  0.00000000	  0.00000000	  0.30000000	 -0.00600000	  0.20000000	  0.00000000	  0.00000000	  0.00000000	 -0.30000000	 -0.00600000	  0.20000000	-42.49307160	663.00459358	-30.74497563	  0.97253074	 -0.00600000	  0.25438330	  0.00000000	  0.00000000	  0.00000000	  0.00000000	  0.00000000	  0.00000000	  0.00000000	 -3.58603148	  0.00000000
  0.83666667	  0.00000000	  0.00000000	  0.00000000	  0.30000000	 -0.00600000	  0.20000000	  0.00000000	  0.00000000	  0.00000000	 -0.30000000	 -0.00600000	  0.20000000	-42.11458569	661.59561611	-30.62717543	  0.97278079	 -0.00600000	  0.25442284	  0.00000000	  0.00000000	  0.00000000	  0.00000000	  0.00000000	  0.00000000	  0.00000000	 -3.58934197	  0.00000000
  0.83750000	  0.00000000	  0.00000000	  0.00000000	  0.30000000	 -0.00600000	  0.20000000	  0.00000000	  0.00000000	  0.00000000	 -0.30000000	 -0.00600000	  0.20000000	-41.73863319	660.21336638	-30.50591410	  0.97302567	 -0.00600000	  0.25446664	  0.00000000	  0.00000000	  0.00000000	  0.00000000	  0.00000000	  0.00000000	  0.00000000	 -3.59397753	  0.00000000
  0.83833333	  0.00000000	  0.00000000	  0.00000000	  0.30000000	 -0.00600000	  0.20000000	  0.00000000	  0.00000000	  0.00000000	 -0.30000000	 -0.00600000	  0.20000000	-41.36655305	658.85058586	-30.38305888	  0.97326595	 -0.00600000	  0.25451304	  0.00000000	  0.00000000	  0.00000000	  0.00000000	  0.00000000	  0.00000000	  0.00000000	 -3.59890707	  0.00000000
  0.83916667	  0.00000000	  0.00000000	  0.00000000	  0.30000000	 -0.00600000	  0.20000000	  0.00000000	  0.00000000	  0.00000000	 -0.30000000	 -0.00600000	  0.20000000	-40.99893753	657.50205193	-30.26103962	  0.97350474	 -0.00600000	  0.25456042	  0.00000000	  0.00000000	  0.00000000	  0.00000000	  0.00000000	  0.00000000	  0.00000000	 -3.60308716	  0.00000000
  0.84000000	  0.00000000	  0.00000000	  0.00000000	  0.30000000	 -0.00600000	  0.20000000	  0.00000000	  0.00000000	  0.00000000	 -0.30000000	 -0.00600000	  0.20000000	-40.63560043	656.16580256	-30.14318498	  0.97374661	 -0.00600000	  0.25460752	  0.00000000	  0.00000000	  0.00000000	  0.00000000	  0.00000000	  0.00000000	  0.00000000	 -3.60565172	  0.00000000
  0.84083333	  0.00000000	  0.00000000	  0.00000000	  0.30000000	 -0.00600000	  0.20000000	  0.00000000	  0.00000000	  0.00000000	 -0.30000000	 -0.00600000	  0.20000000	-40.27609470	654.84305836	-30.03374189	  0.97399581	 -0.00600000	  0.25465365	  0.00000000	  0.00000000	  0.00000000	  0.00000000	  0.00000000	  0.00000000	  0.00000000	 -3.60586643	  0.00000000
  0.84166667	  0.00000000	  0.00000000	  0.00000000	  0.30000000	 -0.00600000	  0.20000000	  0.00000000	  0.00000000	  0.00000000	 -0.30000000	 -0.00600000	  0.20000000	-39.91996642	653.53684858	-29.93719188	  0.97425504	 -0.00600000	  0.25469864	  0.00000000	  0.00000000	  0.00000000	  0.00000000	  0.00000000	  0.00000000	  0.00000000	 -3.60315422	  0.00000000
  0.84250000	  0.00000000	  0.00000000	  0.00000000	  0.30000000	 -0.00600000	  0.20000000	  0.00000000	  0.00000000	  0.00000000	 -0.30000000	 -0.00600000	  0.20000000	-39.56687116	652.25121513	-29.85653909	  0.97452500	 -0.00600000	  0.25474249	  0.00000000	  0.00000000	  0.00000000	  0.00000000	  0.00000000	  0.00000000	  0.00000000	 -3.59732491	  0.00000000
  0.84333333	  0.00000000	  0.00000000	  0.00000000	  0.30000000	 -0.00600000	  0.20000000	  0.00000000	  0.00000000	  0.00000000	 -0.30000000	 -0.00600000	  0.20000000	-39.21655391	650.99098603	-29.79174599	  0.97480488	 -0.00600000	  0.25478492	  0.00000000	  0.00000000	  0.00000000	  0.00000000	  0.00000000	  0.00000000	  0.00000000	 -3.58859396	  0.00000000
  0.84416667	  0.00000000	  0.00000000	  0.00000000	  0.30000000	 -0.00600000	  0.20000000	  0.00000000	  0.00000000	  0.00000000	 -0.30000000	 -0.00600000	  0.20000000	-38.86838141	649.76047964	-29.74018537	  0.97509261	 -0.00600000	  0.25482551	  0.00000000	  0.00000000	  0.00000000	  0.00000000	  0.00000000	  0.00000000	  0.00000000	 -3.57735197	  0.00000000
  0.84500000	  0.00000000	  0.00000000	  0.00000000	  0.30000000	 -0.00600000	  0.20000000	  0.00000000	  0.00000000	  0.00000000	 -0.30000000	 -0.00600000	  0.20000000	-38.52061568	648.56187636	-29.69835785	  0.97538497	 -0.00600000	  0.25486432	  0.00000000	  0.00000000	  0.00000000	  0.00000000	  0.00000000	  0.00000000	  0.00000000	 -3.56404723	  0.00000000
  0.84583333	  0.00000000	  0.00000000	  0.00000000	  0.30000000	 -0.00600000	  0.20000000	  0.00000000	  0.00000000	  0.00000000	 -0.30000000	 -0.00600000	  0.20000000	-38.16999509	647.39512213	-29.66312955	  0.97567817	 -0.00600000	  0.25490234	  0.00000000	  0.00000000	  0.00000000	  0.00000000	  0.00000000	  0.00000000	  0.00000000	 -3.54928050	  0.00000000
  0.84666667	  0.00000000	  0.00000000	  0.00000000	  0.30000000	 -0.00600000	  0.20000000	  0.00000000	  0.00000000	  0.00000000	 -0.30000000	 -0.00600000	  0.20000000	-37.81231702	646.25923171	-29.63218710	  0.97596899	 -0.00600000	  0.25494146	  0.00000000	  0.00000000	  0.00000000	  0.00000000	  0.00000000	  0.00000000	  0.00000000	 -3.53390443	  0.00000000
  0.84750000	  0.00000000	  0.00000000	  0.00000000	  0.30000000	 -0.00600000	  0.20000000	  0.00000000	  0.00000000	  0.00000000	 -0.30000000	 -0.00600000	  0.20000000	-37.44421953	645.15373919	-29.60378165	  0.97625514	 -0.00600000	  0.25498430	  0.00000000	  0.00000000	  0.00000000	  0.00000000	  0.00000000	  0.00000000	  0.00000000	 -3.51888485	  0.00000000
  0.84833333	  0.00000000	  0.00000000	  0.00000000	  0.30000000	 -0.00600000	  0.20000000	  0.00000000	  0.00000000	  0.00000000	 -0.30000000	 -0.00600000	  0.20000000	-37.06485967	644.07967133	-29.57627050	  0.97653540	 -0.00600000	  0.25503383	  0.00000000	  0.00000000	  0.00000000	  0.00000000	  0.00000000	  0.00000000	  0.00000000	 -3.50498207	  0.00000000
  0.84916667	  0.00000000	  0.00000000	  0.00000000	  0.30000000	 -0.00600000	  0.20000000	  0.00000000	  0.00000000	  0.00000000	 -0.30000000	 -0.00600000	  0.20000000	-36.67580852	643.03991850	-29.54821283	  0.97680976	 -0.00600000	  0.25509218	  0.00000000	  0.00000000	  0.00000000	  0.00000000	  0.00000000	  0.00000000	  0.00000000	 -3.49256827	  0.00000000
